{
  "accessors": [
    {
      "bufferView": 2,
      "componentType": 5126,
      "count": 24,
      "max": [
        1.0,
        1.0,
        1.0
      ],
      "min": [
        -1.0,
        -1.0,
        -1.0
      ],
      "type": "VEC3"
    },
    {
      "bufferView": 2,
      "byteOffset": 288,
      "componentType": 5126,
      "count": 24,
      "max": [
        1.0,
        1.0,
        1.0
      ],
      "min": [
        -1.0,
        -1.0,
        -1.0
      ],
      "type": "VEC3"
    },
    {
      "bufferView": 1,
      "componentType": 5126,
      "count": 24,
      "max": [
        0.7499567270278931,
        0.9999133944511414
      ],
      "min": [
        8.658754813950509e-05,
        8.660554885864258e-05
      ],
      "type": "VEC2"
    },
    {
      "bufferView": 0,
      "componentType": 5125,
      "count": 36,
      "type": "SCALAR"
    },
    {
      "bufferView": 2,
      "byteOffset": 576,
      "componentType": 5126,
      "count": 65532,
      "max": [
        6.014998435974121,
        5.220992088317871,
        2.360471725463867
      ],
      "min": [
        -4.742381572723389,
        -5.0580902099609375,
        -3.355954170227051
      ],
      "type": "VEC3"
    },
    {
      "bufferView": 2,
      "byteOffset": 786960,
      "componentType": 5126,
      "count": 65532,
      "max": [
        0.999634325504303,
        1.0,
        0.9999904632568359
      ],
      "min": [
        -0.9999608993530273,
        -0.9997900724411011,
        -0.9999780058860779
      ],
      "type": "VEC3"
    },
    {
      "bufferView": 1,
      "byteOffset": 192,
      "componentType": 5126,
      "count": 65532,
      "max": [
        0.9994509816169739,
        0.9992210268974304
      ],
      "min": [
        0.0003480000013951212,
        0.00037598609924316406
      ],
      "type": "VEC2"
    },
    {
      "bufferView": 0,
      "byteOffset": 144,
      "componentType": 5125,
      "count": 303051,
      "type": "SCALAR"
    },
    {
      "bufferView": 2,
      "byteOffset": 1573344,
      "componentType": 5126,
      "count": 65532,
      "max": [
        6.019973278045654,
        5.145707130432129,
        2.4156947135925293
      ],
      "min": [
        -4.709152698516846,
        -4.956804275512695,
        -3.381631851196289
      ],
      "type": "VEC3"
    },
    {
      "bufferView": 2,
      "byteOffset": 2359728,
      "componentType": 5126,
      "count": 65532,
      "max": [
        0.9998846054077148,
        0.9999926686286926,
        0.999983012676239
      ],
      "min": [
        -0.9999445676803589,
        -0.9998805522918701,
        -0.9999997615814209
      ],
      "type": "VEC3"
    },
    {
      "bufferView": 1,
      "byteOffset": 524448,
      "componentType": 5126,
      "count": 65532,
      "max": [
        0.9996500015258789,
        0.9994840025901794
      ],
      "min": [
        0.0003349999897181988,
        0.00032597780227661133
      ],
      "type": "VEC2"
    },
    {
      "bufferView": 0,
      "byteOffset": 1212348,
      "componentType": 5125,
      "count": 229683,
      "type": "SCALAR"
    },
    {
      "bufferView": 2,
      "byteOffset": 3146112,
      "componentType": 5126,
      "count": 65534,
      "max": [
        6.020661354064941,
        5.15000057220459,
        2.445103168487549
      ],
      "min": [
        -4.742381572723389,
        -4.982723236083984,
        -3.3935489654541016
      ],
      "type": "VEC3"
    },
    {
      "bufferView": 2,
      "byteOffset": 3932520,
      "componentType": 5126,
      "count": 65534,
      "max": [
        0.9997905492782593,
        0.999808132648468,
        0.9997923970222473
      ],
      "min": [
        -0.9999879598617554,
        -0.999995768070221,
        -0.9999427199363708
      ],
      "type": "VEC3"
    },
    {
      "bufferView": 1,
      "byteOffset": 1048704,
      "componentType": 5126,
      "count": 65534,
      "max": [
        0.9996439814567566,
        0.9993680119514465
      ],
      "min": [
        0.0003260000084992498,
        0.0003280043601989746
      ],
      "type": "VEC2"
    },
    {
      "bufferView": 0,
      "byteOffset": 2131080,
      "componentType": 5125,
      "count": 141111,
      "type": "SCALAR"
    },
    {
      "bufferView": 2,
      "byteOffset": 4718928,
      "componentType": 5126,
      "count": 20570,
      "max": [
        5.999192237854004,
        5.1777753829956055,
        2.4881277084350586
      ],
      "min": [
        -4.742381572723389,
        -5.0421462059021,
        -3.2921228408813477
      ],
      "type": "VEC3"
    },
    {
      "bufferView": 2,
      "byteOffset": 4965768,
      "componentType": 5126,
      "count": 20570,
      "max": [
        0.9999141693115234,
        1.0,
        0.9999557733535767
      ],
      "min": [
        -0.9999445676803589,
        -0.9999999403953552,
        -0.9994308948516846
      ],
      "type": "VEC3"
    },
    {
      "bufferView": 1,
      "byteOffset": 1572976,
      "componentType": 5126,
      "count": 20570,
      "max": [
        0.9994810223579407,
        0.9994660019874573
      ],
      "min": [
        0.0003440000000409782,
        0.00032597780227661133
      ],
      "type": "VEC2"
    },
    {
      "bufferView": 0,
      "byteOffset": 2695524,
      "componentType": 5125,
      "count": 26289,
      "type": "SCALAR"
    },
    {
      "bufferView": 2,
      "byteOffset": 5212608,
      "componentType": 5126,
      "count": 65532,
      "max": [
        6.008835315704346,
        5.220992088317871,
        2.3668699264526367
      ],
      "min": [
        -4.699418544769287,
        -5.0421462059021,
        -3.392205238342285
      ],
      "type": "VEC3"
    },
    {
      "bufferView": 2,
      "byteOffset": 5998992,
      "componentType": 5126,
      "count": 65532,
      "max": [
        0.9999882578849792,
        1.0,
        0.9999678730964661
      ],
      "min": [
        -1.0,
        -1.0,
        -1.0
      ],
      "type": "VEC3"
    },
    {
      "bufferView": 1,
      "byteOffset": 1737536,
      "componentType": 5126,
      "count": 65532,
      "max": [
        1.999634027481079,
        0.9994990229606628
      ],
      "min": [
        1.0003830194473267,
        0.00035697221755981445
      ],
      "type": "VEC2"
    },
    {
      "bufferView": 0,
      "byteOffset": 2800680,
      "componentType": 5125,
      "count": 274230,
      "type": "SCALAR"
    },
    {
      "bufferView": 2,
      "byteOffset": 6785376,
      "componentType": 5126,
      "count": 65532,
      "max": [
        6.020815372467041,
        5.025832176208496,
        2.4324069023132324
      ],
      "min": [
        -4.696889877319336,
        -5.038938045501709,
        -3.3935489654541016
      ],
      "type": "VEC3"
    },
    {
      "bufferView": 2,
      "byteOffset": 7571760,
      "componentType": 5126,
      "count": 65532,
      "max": [
        0.9998869299888611,
        0.9999109506607056,
        0.9999919533729553
      ],
      "min": [
        -0.9999297857284546,
        -0.9999980926513672,
        -0.9999528527259827
      ],
      "type": "VEC3"
    },
    {
      "bufferView": 1,
      "byteOffset": 2261792,
      "componentType": 5126,
      "count": 65532,
      "max": [
        1.9996609687805176,
        0.9994909763336182
      ],
      "min": [
        1.0003279447555542,
        0.00033402442932128906
      ],
      "type": "VEC2"
    },
    {
      "bufferView": 0,
      "byteOffset": 3897600,
      "componentType": 5125,
      "count": 235134,
      "type": "SCALAR"
    },
    {
      "bufferView": 2,
      "byteOffset": 8358144,
      "componentType": 5126,
      "count": 65532,
      "max": [
        6.0151262283325195,
        5.1746721267700195,
        2.4718518257141113
      ],
      "min": [
        -4.718830585479736,
        -5.0580902099609375,
        -3.381631851196289
      ],
      "type": "VEC3"
    },
    {
      "bufferView": 2,
      "byteOffset": 9144528,
      "componentType": 5126,
      "count": 65532,
      "max": [
        0.999933660030365,
        0.9999662041664124,
        0.9999819993972778
      ],
      "min": [
        -0.9997999668121338,
        -0.9999708533287048,
        -0.999862790107727
      ],
      "type": "VEC3"
    },
    {
      "bufferView": 1,
      "byteOffset": 2786048,
      "componentType": 5126,
      "count": 65532,
      "max": [
        1.9996709823608398,
        0.999459981918335
      ],
      "min": [
        1.0003329515457153,
        0.00032901763916015625
      ],
      "type": "VEC2"
    },
    {
      "bufferView": 0,
      "byteOffset": 4838136,
      "componentType": 5125,
      "count": 157836,
      "type": "SCALAR"
    },
    {
      "bufferView": 2,
      "byteOffset": 9930912,
      "componentType": 5126,
      "count": 63005,
      "max": [
        6.007845401763916,
        5.18892765045166,
        2.489311695098877
      ],
      "min": [
        -4.741940498352051,
        -5.0580902099609375,
        -3.3809080123901367
      ],
      "type": "VEC3"
    },
    {
      "bufferView": 2,
      "byteOffset": 10686972,
      "componentType": 5126,
      "count": 63005,
      "max": [
        1.0,
        1.0,
        1.0
      ],
      "min": [
        -1.0,
        -1.0,
        -0.9999750852584839
      ],
      "type": "VEC3"
    },
    {
      "bufferView": 1,
      "byteOffset": 3310304,
      "componentType": 5126,
      "count": 63005,
      "max": [
        1.9996700286865234,
        0.9995070099830627
      ],
      "min": [
        1.0003279447555542,
        0.0003299713134765625
      ],
      "type": "VEC2"
    },
    {
      "bufferView": 0,
      "byteOffset": 5469480,
      "componentType": 5125,
      "count": 94995,
      "type": "SCALAR"
    }
  ],
  "asset": {
    "extras": {
      "author": "ffish.asia / floraZia.com (https://sketchfab.com/ffishAsia-and-floraZia)",
      "license": "CC0-1.0 (http://creativecommons.org/publicdomain/zero/1.0/)",
      "source": "https://sketchfab.com/3d-models/cc0-hibiscus-cv-red-8992b6b94b094a069930104a32d5e9f5",
      "title": "CC0 ハイビスカス🌺 赤 Hibiscus cv. Red"
    },
    "generator": "Sketchfab-16.61.0",
    "version": "2.0"
  },
  "bufferViews": [
    {
      "buffer": 0,
      "byteLength": 5849460,
      "name": "floatBufferViews",
      "target": 34963
    },
    {
      "buffer": 0,
      "byteLength": 3814344,
      "byteOffset": 5849460,
      "byteStride": 8,
      "name": "floatBufferViews",
      "target": 34962
    },
    {
      "buffer": 0,
      "byteLength": 11443032,
      "byteOffset": 9663804,
      "byteStride": 12,
      "name": "floatBufferViews",
      "target": 34962
    }
  ],
  "buffers": [
    {
      "byteLength": 21106836,
      "uri": "scene.bin"
    }
  ],
  "extensionsUsed": [
    "KHR_materials_unlit"
  ],
  "images": [
    {
      "uri": "textures/Material.001_baseColor.jpeg"
    },
    {
      "uri": "textures/Tane076-W01-1all-2_tex0_baseColor.jpeg"
    },
    {
      "uri": "textures/Tane076-W01-1all-2_tex1_baseColor.jpeg"
    }
  ],
  "materials": [
    {
      "doubleSided": true,
      "extensions": {
        "KHR_materials_unlit": {}
      },
      "name": "Material.001",
      "pbrMetallicRoughness": {
        "baseColorTexture": {
          "index": 0
        },
        "metallicFactor": 0.0
      }
    },
    {
      "doubleSided": true,
      "extensions": {
        "KHR_materials_unlit": {}
      },
      "name": "Tane076-W01-1all-2_tex0",
      "pbrMetallicRoughness": {
        "baseColorTexture": {
          "index": 1
        },
        "metallicFactor": 0.0
      }
    },
    {
      "doubleSided": true,
      "extensions": {
        "KHR_materials_unlit": {}
      },
      "name": "Tane076-W01-1all-2_tex1",
      "pbrMetallicRoughness": {
        "baseColorTexture": {
          "index": 2
        },
        "metallicFactor": 0.0
      }
    }
  ],
  "meshes": [
    {
      "name": "Object_0",
      "primitives": [
        {
          "attributes": {
            "NORMAL": 1,
            "POSITION": 0,
            "TEXCOORD_0": 2
          },
          "indices": 3,
          "material": 0,
          "mode": 4
        }
      ]
    },
    {
      "name": "Object_1",
      "primitives": [
        {
          "attributes": {
            "NORMAL": 5,
            "POSITION": 4,
            "TEXCOORD_0": 6
          },
          "indices": 7,
          "material": 1,
          "mode": 4
        }
      ]
    },
    {
      "name": "Object_2",
      "primitives": [
        {
          "attributes": {
            "NORMAL": 9,
            "POSITION": 8,
            "TEXCOORD_0": 10
          },
          "indices": 11,
          "material": 1,
          "mode": 4
        }
      ]
    },
    {
      "name": "Object_3",
      "primitives": [
        {
          "attributes": {
            "NORMAL": 13,
            "POSITION": 12,
            "TEXCOORD_0": 14
          },
          "indices": 15,
          "material": 1,
          "mode": 4
        }
      ]
    },
    {
      "name": "Object_4",
      "primitives": [
        {
          "attributes": {
            "NORMAL": 17,
            "POSITION": 16,
            "TEXCOORD_0": 18
          },
          "indices": 19,
          "material": 1,
          "mode": 4
        }
      ]
    },
    {
      "name": "Object_5",
      "primitives": [
        {
          "attributes": {
            "NORMAL": 21,
            "POSITION": 20,
            "TEXCOORD_0": 22
          },
          "indices": 23,
          "material": 2,
          "mode": 4
        }
      ]
    },
    {
      "name": "Object_6",
      "primitives": [
        {
          "attributes": {
            "NORMAL": 25,
            "POSITION": 24,
            "TEXCOORD_0": 26
          },
          "indices": 27,
          "material": 2,
          "mode": 4
        }
      ]
    },
    {
      "name": "Object_7",
      "primitives": [
        {
          "attributes": {
            "NORMAL": 29,
            "POSITION": 28,
            "TEXCOORD_0": 30
          },
          "indices": 31,
          "material": 2,
          "mode": 4
        }
      ]
    },
    {
      "name": "Object_8",
      "primitives": [
        {
          "attributes": {
            "NORMAL": 33,
            "POSITION": 32,
            "TEXCOORD_0": 34
          },
          "indices": 35,
          "material": 2,
          "mode": 4
        }
      ]
    }
  ],
  "nodes": [
    {
      "children": [
        1
      ],
      "matrix": [
        1.0,
        0.0,
        0.0,
        0.0,
        0.0,
        2.220446049250313e-16,
        -1.0,
        0.0,
        0.0,
        1.0,
        2.220446049250313e-16,
        0.0,
        0.0,
        0.0,
        0.0,
        1.0
      ],
      "name": "Sketchfab_model"
    },
    {
      "children": [
        2
      ],
      "name": "root"
    },
    {
      "children": [
        3,
        5
      ],
      "matrix": [
        1.0,
        0.0,
        0.0,
        0.0,
        0.0,
        2.220446049250313e-16,
        1.0,
        0.0,
        0.0,
        -1.0,
        2.220446049250313e-16,
        0.0,
        0.0,
        0.0,
        0.0,
        1.0
      ],
      "name": "GLTF_SceneRootNode"
    },
    {
      "children": [
        4
      ],
      "matrix": [
        -0.0005508633414607293,
        -0.2973936321139053,
        0.0010607393543153045,
        0.0,
        0.00137297104214889,
        -0.0010632731032756111,
        -0.2973909937562177,
        0.0,
        0.29739241414715023,
        -0.0005459570062513356,
        0.001374929580127982,
        0.0,
        8.112668991088867,
        0.006716402247548103,
        -0.00019154477922711521,
        1.0
      ],
      "name": "Cube_2"
    },
    {
      "mesh": 0,
      "name": "Object_4"
    },
    {
      "children": [
        6,
        7,
        8,
        9,
        10,
        11,
        12,
        13
      ],
      "matrix": [
        0.999717123144443,
        0.0237838956396647,
        3.2681000731137055e-09,
        0.0,
        0.023260024496841104,
        -0.9776970858220215,
        0.2087280039561841,
        0.0,
        0.004964368258381322,
        -0.20866895955874223,
        -0.977973731939906,
        0.0,
        0.0,
        0.0,
        0.0,
        1.0
      ],
      "name": "Tane076-W01-1all-2_5"
    },
    {
      "mesh": 1,
      "name": "Object_6"
    },
    {
      "mesh": 2,
      "name": "Object_7"
    },
    {
      "mesh": 3,
      "name": "Object_8"
    },
    {
      "mesh": 4,
      "name": "Object_9"
    },
    {
      "mesh": 5,
      "name": "Object_10"
    },
    {
      "mesh": 6,
      "name": "Object_11"
    },
    {
      "mesh": 7,
      "name": "Object_12"
    },
    {
      "mesh": 8,
      "name": "Object_13"
    }
  ],
  "samplers": [
    {
      "magFilter": 9729,
      "minFilter": 9987,
      "wrapS": 10497,
      "wrapT": 10497
    }
  ],
  "scene": 0,
  "scenes": [
    {
      "name": "Sketchfab_Scene",
      "nodes": [
        0
      ]
    }
  ],
  "textures": [
    {
      "sampler": 0,
      "source": 0
    },
    {
      "sampler": 0,
      "source": 1
    },
    {
      "sampler": 0,
      "source": 2
    }
  ]
}
